<svg width="683" height="680" viewBox="0 0 683 680" fill="none" xmlns="http://www.w3.org/2000/svg">
<path d="M241.129 5.07392C190.329 21.7406 145.262 48.6739 106.995 85.6073C76.0622 115.341 55.2622 143.474 36.8622 180.274C-29.9379 314.541 -4.47118 472.674 101.262 578.674C168.195 645.874 261.129 682.807 354.462 679.474C427.529 676.807 489.796 655.607 548.462 613.341C611.396 568.141 657.129 501.741 678.462 424.674C683.129 407.607 683.262 405.074 679.929 397.607C676.462 390.007 668.729 386.007 659.129 386.807C653.262 387.341 650.596 388.541 643.262 394.007C622.196 409.474 608.729 417.874 592.462 425.874C554.729 444.274 522.196 451.874 480.596 451.874C411.929 451.874 348.195 425.607 299.795 377.341C250.862 328.407 224.462 265.207 224.595 196.541C224.729 137.474 242.062 84.6739 275.262 42.1406C283.662 31.3406 286.062 24.2739 283.929 16.9406C280.862 6.80726 271.529 -0.25941 261.529 0.00725622C258.729 0.00725622 249.529 2.40726 241.129 5.07392ZM203.262 81.4739C192.862 106.407 185.529 134.407 182.462 161.207C180.595 177.607 180.595 215.874 182.462 231.207C194.995 333.474 257.662 422.141 348.462 466.407C390.329 486.941 426.462 495.607 473.795 496.807C521.262 498.007 557.262 491.207 602.329 472.274C609.929 469.074 616.462 466.807 616.862 467.074C617.929 468.141 600.862 495.474 590.329 509.607C531.662 588.407 443.795 633.207 347.795 633.207C280.462 633.207 221.395 613.607 167.262 573.474C130.595 546.141 99.2622 508.141 78.0622 465.474C56.8622 422.674 47.5288 382.274 47.5288 333.874C47.6622 291.874 53.5288 260.007 68.0622 223.207C89.7955 168.141 129.662 118.674 179.129 85.6073C188.595 79.2073 207.395 68.0073 208.729 67.8739C208.862 67.8739 206.329 74.0073 203.262 81.4739Z" fill="#919090"/>
</svg>
