<svg width="682" height="682" viewBox="0 0 682 682" fill="none" xmlns="http://www.w3.org/2000/svg">
<path d="M332.075 1.68795C326.875 4.08795 322.742 8.08795 319.808 13.5546C317.675 17.4213 317.408 22.2213 317.408 58.7546V99.5546L321.408 105.288C326.342 112.221 332.875 115.821 340.742 115.821C348.608 115.821 355.142 112.221 360.075 105.288L364.075 99.5546V58.7546C364.075 18.488 364.075 17.688 361.008 12.488C355.142 2.08795 341.675 -2.84538 332.075 1.68795Z" fill="#919090"/>
<path d="M105.008 95.9544C92.3417 102.221 88.6083 116.754 96.475 129.421C97.9417 131.821 111.142 145.554 125.675 159.954C145.275 179.288 153.408 186.488 157.142 187.688C175.275 193.688 192.742 175.421 186.075 157.554C183.942 152.088 130.608 98.7544 124.075 95.6878C117.142 92.4878 112.075 92.4878 105.008 95.9544Z" fill="#919090"/>
<path d="M557.406 95.6881C550.873 98.7548 497.54 152.221 495.406 157.555C492.206 166.221 494.74 176.355 501.54 182.755C508.206 189.021 514.34 190.355 524.073 187.688C528.206 186.488 534.606 181.021 555.806 159.955C570.34 145.555 583.806 131.288 585.673 128.221C597.006 109.021 577.14 86.0881 557.406 95.6881Z" fill="#919090"/>
<path d="M324.741 170.488C243.275 177.821 177.808 243.955 170.075 326.755C164.608 387.155 194.475 449.155 245.675 483.288C318.075 531.421 413.941 518.621 469.541 453.421C494.341 424.355 507.941 392.488 511.275 355.555C519.941 262.355 449.675 179.288 354.741 170.488C346.741 169.821 339.141 169.288 338.075 169.288C337.008 169.421 331.008 169.955 324.741 170.488ZM375.808 221.688C417.941 234.355 447.275 263.555 460.341 306.088C463.675 316.888 463.941 319.555 463.941 341.155C463.941 362.755 463.675 365.421 460.341 376.221C453.541 398.355 442.475 416.755 427.275 431.288C412.608 445.155 396.608 454.355 375.808 460.755C365.008 464.088 362.341 464.355 340.741 464.355C319.141 464.355 316.475 464.088 305.675 460.755C263.141 447.688 234.208 418.755 221.141 376.221C217.808 365.421 217.541 362.755 217.541 341.155C217.541 319.555 217.808 316.888 221.141 306.088C235.275 260.088 268.208 229.821 315.541 219.155C321.541 217.821 329.941 217.288 344.075 217.688C361.008 218.088 365.941 218.755 375.808 221.688Z" fill="#919090"/>
<path d="M18.6074 318.355C16.3407 318.888 12.7407 320.488 10.6074 321.688C-4.32595 330.488 -3.25928 354.222 12.3407 361.955C17.0074 364.222 20.7407 364.488 58.3407 364.488H99.1407L104.874 360.488C111.807 355.555 115.407 349.022 115.407 341.155C115.407 333.288 111.807 326.755 104.874 321.822L99.1407 317.822L61.0074 317.555C39.9407 317.422 20.8741 317.822 18.6074 318.355Z" fill="#919090"/>
<path d="M583.808 318.355C573.541 320.888 566.074 330.622 566.074 341.422C566.074 349.022 569.674 355.555 576.608 360.488L582.341 364.488H623.141C663.408 364.488 664.208 364.488 669.408 361.422C677.541 356.755 681.408 350.222 681.408 341.155C681.408 332.088 677.541 325.555 669.408 320.888C664.208 317.955 663.141 317.822 626.074 317.555C605.141 317.422 586.074 317.822 583.808 318.355Z" fill="#919090"/>
<path d="M156.875 494.755C151.275 496.355 101.008 545.288 95.8079 554.088C87.5412 568.221 95.6746 586.088 111.808 588.755C121.541 590.355 125.008 587.821 155.275 557.955C170.875 542.488 184.475 527.955 185.541 525.555C189.141 517.155 187.408 507.555 181.008 500.621C174.475 493.688 166.741 491.821 156.875 494.755Z" fill="#919090"/>
<path d="M506.074 496.088C495.807 501.288 490.874 512.221 494.074 522.888C495.407 527.421 500.741 533.688 523.141 556.355C557.008 590.488 561.674 593.155 575.407 586.221C585.674 581.021 590.608 570.088 587.408 559.421C586.074 554.888 580.741 548.621 558.341 525.955C524.474 491.821 519.807 489.155 506.074 496.088Z" fill="#919090"/>
<path d="M330.075 569.021C327.542 570.355 323.675 573.955 321.408 577.021L317.408 582.755V623.555C317.408 663.821 317.408 664.621 320.475 669.821C325.142 677.955 331.675 681.821 340.742 681.821C349.808 681.821 356.342 677.955 361.008 669.821C364.075 664.621 364.075 663.821 364.075 623.555V582.755L360.075 577.021C355.142 570.088 348.608 566.488 340.742 566.488C337.408 566.488 332.608 567.555 330.075 569.021Z" fill="#919090"/>
</svg>
